<?xml version="1.0" encoding="UTF-8" standalone="no"?>
<!DOCTYPE svg PUBLIC "-//W3C//DTD SVG 1.1//EN"
 "http://www.w3.org/Graphics/SVG/1.1/DTD/svg11.dtd">
<!-- Generated by graphviz version 13.1.0 (20250701.0955)
 -->
<!-- Title: focus_validation Pages: 1 -->
<svg width="797pt" height="825pt"
 viewBox="0.00 0.00 797.00 825.00" xmlns="http://www.w3.org/2000/svg" xmlns:xlink="http://www.w3.org/1999/xlink">
<g id="graph0" class="graph" transform="scale(1 1) rotate(0) translate(4 820.93)">
<title>focus_validation</title>
<polygon fill="white" stroke="none" points="-4,4 -4,-820.93 793.3,-820.93 793.3,4 -4,4"/>
<text xml:space="preserve" text-anchor="middle" x="394.65" y="-803.43" font-family="Times,serif" font-size="10.00">FOCUS Validation Plan</text>
<!-- CostAndUsage&#45;D&#45;006&#45;M -->
<g id="node1" class="node">
<title>CostAndUsage&#45;D&#45;006&#45;M</title>
<ellipse fill="lightgreen" stroke="black" cx="533.21" cy="-771.34" rx="82.91" ry="26.34"/>
<text xml:space="preserve" text-anchor="middle" x="533.21" y="-777.41" font-family="Helvetica,sans-Serif" font-size="9.00">CostAndUsage&#45;D&#45;006&#45;M</text>
<text xml:space="preserve" text-anchor="middle" x="533.21" y="-767.66" font-family="Helvetica,sans-Serif" font-size="9.00">PASSED</text>
<text xml:space="preserve" text-anchor="middle" x="533.21" y="-757.91" font-family="Helvetica,sans-Serif" font-size="9.00">violations=0</text>
</g>
<!-- BilledCost&#45;C&#45;000&#45;M -->
<g id="node19" class="node">
<title>BilledCost&#45;C&#45;000&#45;M</title>
<g id="a_node19"><a xlink:title="BilledCost&#45;C&#45;000&#45;M: AND failed">
<ellipse fill="lightcoral" stroke="black" cx="720.71" cy="-522.34" rx="68.59" ry="26.34"/>
<text xml:space="preserve" text-anchor="middle" x="720.71" y="-528.41" font-family="Helvetica,sans-Serif" font-size="9.00">BilledCost&#45;C&#45;000&#45;M</text>
<text xml:space="preserve" text-anchor="middle" x="720.71" y="-518.66" font-family="Helvetica,sans-Serif" font-size="9.00">FAILED</text>
<text xml:space="preserve" text-anchor="middle" x="720.71" y="-508.91" font-family="Helvetica,sans-Serif" font-size="9.00">violations=1</text>
</a>
</g>
</g>
<!-- CostAndUsage&#45;D&#45;006&#45;M&#45;&gt;BilledCost&#45;C&#45;000&#45;M -->
<g id="edge18" class="edge">
<title>CostAndUsage&#45;D&#45;006&#45;M&#45;&gt;BilledCost&#45;C&#45;000&#45;M</title>
<path fill="none" stroke="black" d="M591.65,-752.38C600.53,-747.75 609.07,-742.12 616.12,-735.34 668.39,-685.04 697.81,-602.92 711.05,-556.72"/>
<polygon fill="black" stroke="black" points="713.33,-557.66 712.86,-550.26 708.61,-556.34 713.33,-557.66"/>
</g>
<!-- CostAndUsage&#45;D&#45;023&#45;M -->
<g id="node2" class="node">
<title>CostAndUsage&#45;D&#45;023&#45;M</title>
<ellipse fill="lightgreen" stroke="black" cx="94.58" cy="-523.34" rx="82.91" ry="26.34"/>
<text xml:space="preserve" text-anchor="middle" x="94.58" y="-529.41" font-family="Helvetica,sans-Serif" font-size="9.00">CostAndUsage&#45;D&#45;023&#45;M</text>
<text xml:space="preserve" text-anchor="middle" x="94.58" y="-519.66" font-family="Helvetica,sans-Serif" font-size="9.00">PASSED</text>
<text xml:space="preserve" text-anchor="middle" x="94.58" y="-509.91" font-family="Helvetica,sans-Serif" font-size="9.00">violations=0</text>
</g>
<!-- InvoiceIssuerName&#45;C&#45;000&#45;M -->
<g id="node16" class="node">
<title>InvoiceIssuerName&#45;C&#45;000&#45;M</title>
<ellipse fill="lightgreen" stroke="black" cx="319.73" cy="-381.34" rx="94.58" ry="26.34"/>
<text xml:space="preserve" text-anchor="middle" x="319.73" y="-387.41" font-family="Helvetica,sans-Serif" font-size="9.00">InvoiceIssuerName&#45;C&#45;000&#45;M</text>
<text xml:space="preserve" text-anchor="middle" x="319.73" y="-377.66" font-family="Helvetica,sans-Serif" font-size="9.00">PASSED</text>
<text xml:space="preserve" text-anchor="middle" x="319.73" y="-367.91" font-family="Helvetica,sans-Serif" font-size="9.00">violations=0</text>
</g>
<!-- CostAndUsage&#45;D&#45;023&#45;M&#45;&gt;InvoiceIssuerName&#45;C&#45;000&#45;M -->
<g id="edge13" class="edge">
<title>CostAndUsage&#45;D&#45;023&#45;M&#45;&gt;InvoiceIssuerName&#45;C&#45;000&#45;M</title>
<path fill="none" stroke="black" d="M153.33,-504.44C165.5,-499.55 178.01,-493.81 189.15,-487.34 225.29,-466.34 261.72,-435.48 286.7,-412.47"/>
<polygon fill="black" stroke="black" points="288.24,-414.39 291.69,-407.83 284.9,-410.8 288.24,-414.39"/>
</g>
<!-- CostAndUsage&#45;D&#45;038&#45;M -->
<g id="node3" class="node">
<title>CostAndUsage&#45;D&#45;038&#45;M</title>
<ellipse fill="lightgreen" stroke="black" cx="94.58" cy="-239.34" rx="82.91" ry="26.34"/>
<text xml:space="preserve" text-anchor="middle" x="94.58" y="-245.41" font-family="Helvetica,sans-Serif" font-size="9.00">CostAndUsage&#45;D&#45;038&#45;M</text>
<text xml:space="preserve" text-anchor="middle" x="94.58" y="-235.66" font-family="Helvetica,sans-Serif" font-size="9.00">PASSED</text>
<text xml:space="preserve" text-anchor="middle" x="94.58" y="-225.91" font-family="Helvetica,sans-Serif" font-size="9.00">violations=0</text>
</g>
<!-- ProviderName&#45;C&#45;000&#45;M -->
<g id="node17" class="node">
<title>ProviderName&#45;C&#45;000&#45;M</title>
<ellipse fill="lightgreen" stroke="black" cx="319.73" cy="-168.34" rx="80.79" ry="26.34"/>
<text xml:space="preserve" text-anchor="middle" x="319.73" y="-174.41" font-family="Helvetica,sans-Serif" font-size="9.00">ProviderName&#45;C&#45;000&#45;M</text>
<text xml:space="preserve" text-anchor="middle" x="319.73" y="-164.66" font-family="Helvetica,sans-Serif" font-size="9.00">PASSED</text>
<text xml:space="preserve" text-anchor="middle" x="319.73" y="-154.91" font-family="Helvetica,sans-Serif" font-size="9.00">violations=0</text>
</g>
<!-- CostAndUsage&#45;D&#45;038&#45;M&#45;&gt;ProviderName&#45;C&#45;000&#45;M -->
<g id="edge8" class="edge">
<title>CostAndUsage&#45;D&#45;038&#45;M&#45;&gt;ProviderName&#45;C&#45;000&#45;M</title>
<path fill="none" stroke="black" d="M154.21,-220.69C184.56,-211.03 221.73,-199.2 253.05,-189.24"/>
<polygon fill="black" stroke="black" points="253.5,-191.66 259.43,-187.21 252.02,-186.99 253.5,-191.66"/>
</g>
<!-- BilledCost&#45;C&#45;001&#45;M -->
<g id="node4" class="node">
<title>BilledCost&#45;C&#45;001&#45;M</title>
<ellipse fill="lightgreen" stroke="black" cx="533.21" cy="-700.34" rx="68.59" ry="26.34"/>
<text xml:space="preserve" text-anchor="middle" x="533.21" y="-706.41" font-family="Helvetica,sans-Serif" font-size="9.00">BilledCost&#45;C&#45;001&#45;M</text>
<text xml:space="preserve" text-anchor="middle" x="533.21" y="-696.66" font-family="Helvetica,sans-Serif" font-size="9.00">PASSED</text>
<text xml:space="preserve" text-anchor="middle" x="533.21" y="-686.91" font-family="Helvetica,sans-Serif" font-size="9.00">violations=0</text>
</g>
<!-- BilledCost&#45;C&#45;001&#45;M&#45;&gt;BilledCost&#45;C&#45;000&#45;M -->
<g id="edge1" class="edge">
<title>BilledCost&#45;C&#45;001&#45;M&#45;&gt;BilledCost&#45;C&#45;000&#45;M</title>
<path fill="none" stroke="black" d="M585.1,-682.95C595.96,-677.92 606.92,-671.74 616.12,-664.34 653.65,-634.15 684.28,-587.21 702.25,-555.64"/>
<polygon fill="black" stroke="black" points="704.31,-556.99 705.59,-549.69 700.03,-554.6 704.31,-556.99"/>
</g>
<!-- InvoiceIssuerName&#45;C&#45;001&#45;M -->
<g id="node5" class="node">
<title>InvoiceIssuerName&#45;C&#45;001&#45;M</title>
<ellipse fill="lightgreen" stroke="black" cx="94.58" cy="-452.34" rx="94.58" ry="26.34"/>
<text xml:space="preserve" text-anchor="middle" x="94.58" y="-458.41" font-family="Helvetica,sans-Serif" font-size="9.00">InvoiceIssuerName&#45;C&#45;001&#45;M</text>
<text xml:space="preserve" text-anchor="middle" x="94.58" y="-448.66" font-family="Helvetica,sans-Serif" font-size="9.00">PASSED</text>
<text xml:space="preserve" text-anchor="middle" x="94.58" y="-438.91" font-family="Helvetica,sans-Serif" font-size="9.00">violations=0</text>
</g>
<!-- InvoiceIssuerName&#45;C&#45;001&#45;M&#45;&gt;InvoiceIssuerName&#45;C&#45;000&#45;M -->
<g id="edge10" class="edge">
<title>InvoiceIssuerName&#45;C&#45;001&#45;M&#45;&gt;InvoiceIssuerName&#45;C&#45;000&#45;M</title>
<path fill="none" stroke="black" d="M158.03,-432.47C186.08,-423.54 219.31,-412.97 248.24,-403.77"/>
<polygon fill="black" stroke="black" points="248.91,-406.12 254.84,-401.67 247.43,-401.45 248.91,-406.12"/>
</g>
<!-- ProviderName&#45;C&#45;001&#45;M -->
<g id="node6" class="node">
<title>ProviderName&#45;C&#45;001&#45;M</title>
<ellipse fill="lightgreen" stroke="black" cx="94.58" cy="-168.34" rx="80.79" ry="26.34"/>
<text xml:space="preserve" text-anchor="middle" x="94.58" y="-174.41" font-family="Helvetica,sans-Serif" font-size="9.00">ProviderName&#45;C&#45;001&#45;M</text>
<text xml:space="preserve" text-anchor="middle" x="94.58" y="-164.66" font-family="Helvetica,sans-Serif" font-size="9.00">PASSED</text>
<text xml:space="preserve" text-anchor="middle" x="94.58" y="-154.91" font-family="Helvetica,sans-Serif" font-size="9.00">violations=0</text>
</g>
<!-- ProviderName&#45;C&#45;001&#45;M&#45;&gt;ProviderName&#45;C&#45;000&#45;M -->
<g id="edge5" class="edge">
<title>ProviderName&#45;C&#45;001&#45;M&#45;&gt;ProviderName&#45;C&#45;000&#45;M</title>
<path fill="none" stroke="black" d="M175.82,-168.34C193.49,-168.34 212.29,-168.34 230.25,-168.34"/>
<polygon fill="black" stroke="black" points="229.93,-170.79 236.93,-168.34 229.93,-165.89 229.93,-170.79"/>
</g>
<!-- BilledCost&#45;C&#45;002&#45;M -->
<g id="node7" class="node">
<title>BilledCost&#45;C&#45;002&#45;M</title>
<ellipse fill="lightgreen" stroke="black" cx="533.21" cy="-629.34" rx="68.59" ry="26.34"/>
<text xml:space="preserve" text-anchor="middle" x="533.21" y="-635.41" font-family="Helvetica,sans-Serif" font-size="9.00">BilledCost&#45;C&#45;002&#45;M</text>
<text xml:space="preserve" text-anchor="middle" x="533.21" y="-625.66" font-family="Helvetica,sans-Serif" font-size="9.00">PASSED</text>
<text xml:space="preserve" text-anchor="middle" x="533.21" y="-615.91" font-family="Helvetica,sans-Serif" font-size="9.00">violations=0</text>
</g>
<!-- BilledCost&#45;C&#45;002&#45;M&#45;&gt;BilledCost&#45;C&#45;000&#45;M -->
<g id="edge2" class="edge">
<title>BilledCost&#45;C&#45;002&#45;M&#45;&gt;BilledCost&#45;C&#45;000&#45;M</title>
<path fill="none" stroke="black" d="M581.72,-610.25C593.19,-605.16 605.26,-599.38 616.12,-593.34 638.69,-580.79 662.55,-564.65 681.68,-550.93"/>
<polygon fill="black" stroke="black" points="683.04,-552.98 687.27,-546.89 680.16,-549.01 683.04,-552.98"/>
</g>
<!-- InvoiceIssuerName&#45;C&#45;002&#45;M -->
<g id="node8" class="node">
<title>InvoiceIssuerName&#45;C&#45;002&#45;M</title>
<ellipse fill="lightgreen" stroke="black" cx="94.58" cy="-381.34" rx="94.58" ry="26.34"/>
<text xml:space="preserve" text-anchor="middle" x="94.58" y="-387.41" font-family="Helvetica,sans-Serif" font-size="9.00">InvoiceIssuerName&#45;C&#45;002&#45;M</text>
<text xml:space="preserve" text-anchor="middle" x="94.58" y="-377.66" font-family="Helvetica,sans-Serif" font-size="9.00">PASSED</text>
<text xml:space="preserve" text-anchor="middle" x="94.58" y="-367.91" font-family="Helvetica,sans-Serif" font-size="9.00">violations=0</text>
</g>
<!-- InvoiceIssuerName&#45;C&#45;002&#45;M&#45;&gt;InvoiceIssuerName&#45;C&#45;000&#45;M -->
<g id="edge11" class="edge">
<title>InvoiceIssuerName&#45;C&#45;002&#45;M&#45;&gt;InvoiceIssuerName&#45;C&#45;000&#45;M</title>
<path fill="none" stroke="black" d="M189.56,-381.34C198.5,-381.34 207.59,-381.34 216.6,-381.34"/>
<polygon fill="black" stroke="black" points="216.33,-383.79 223.33,-381.34 216.33,-378.89 216.33,-383.79"/>
</g>
<!-- ProviderName&#45;C&#45;002&#45;M -->
<g id="node9" class="node">
<title>ProviderName&#45;C&#45;002&#45;M</title>
<ellipse fill="lightgreen" stroke="black" cx="94.58" cy="-97.34" rx="80.79" ry="26.34"/>
<text xml:space="preserve" text-anchor="middle" x="94.58" y="-103.41" font-family="Helvetica,sans-Serif" font-size="9.00">ProviderName&#45;C&#45;002&#45;M</text>
<text xml:space="preserve" text-anchor="middle" x="94.58" y="-93.66" font-family="Helvetica,sans-Serif" font-size="9.00">PASSED</text>
<text xml:space="preserve" text-anchor="middle" x="94.58" y="-83.91" font-family="Helvetica,sans-Serif" font-size="9.00">violations=0</text>
</g>
<!-- ProviderName&#45;C&#45;002&#45;M&#45;&gt;ProviderName&#45;C&#45;000&#45;M -->
<g id="edge6" class="edge">
<title>ProviderName&#45;C&#45;002&#45;M&#45;&gt;ProviderName&#45;C&#45;000&#45;M</title>
<path fill="none" stroke="black" d="M153.33,-115.72C183.81,-125.41 221.33,-137.35 252.93,-147.4"/>
<polygon fill="black" stroke="black" points="251.97,-149.67 259.38,-149.46 253.45,-145 251.97,-149.67"/>
</g>
<!-- BilledCost&#45;C&#45;003&#45;M -->
<g id="node10" class="node">
<title>BilledCost&#45;C&#45;003&#45;M</title>
<ellipse fill="lightgreen" stroke="black" cx="533.21" cy="-558.34" rx="68.59" ry="26.34"/>
<text xml:space="preserve" text-anchor="middle" x="533.21" y="-564.41" font-family="Helvetica,sans-Serif" font-size="9.00">BilledCost&#45;C&#45;003&#45;M</text>
<text xml:space="preserve" text-anchor="middle" x="533.21" y="-554.66" font-family="Helvetica,sans-Serif" font-size="9.00">PASSED</text>
<text xml:space="preserve" text-anchor="middle" x="533.21" y="-544.91" font-family="Helvetica,sans-Serif" font-size="9.00">violations=0</text>
</g>
<!-- BilledCost&#45;C&#45;003&#45;M&#45;&gt;BilledCost&#45;C&#45;000&#45;M -->
<g id="edge3" class="edge">
<title>BilledCost&#45;C&#45;003&#45;M&#45;&gt;BilledCost&#45;C&#45;000&#45;M</title>
<path fill="none" stroke="black" d="M595.21,-546.5C612.97,-543.05 632.5,-539.26 650.72,-535.73"/>
<polygon fill="black" stroke="black" points="651.1,-538.15 657.51,-534.41 650.17,-533.34 651.1,-538.15"/>
</g>
<!-- InvoiceIssuerName&#45;C&#45;003&#45;M -->
<g id="node11" class="node">
<title>InvoiceIssuerName&#45;C&#45;003&#45;M</title>
<ellipse fill="lightgreen" stroke="black" cx="94.58" cy="-310.34" rx="94.58" ry="26.34"/>
<text xml:space="preserve" text-anchor="middle" x="94.58" y="-316.41" font-family="Helvetica,sans-Serif" font-size="9.00">InvoiceIssuerName&#45;C&#45;003&#45;M</text>
<text xml:space="preserve" text-anchor="middle" x="94.58" y="-306.66" font-family="Helvetica,sans-Serif" font-size="9.00">PASSED</text>
<text xml:space="preserve" text-anchor="middle" x="94.58" y="-296.91" font-family="Helvetica,sans-Serif" font-size="9.00">violations=0</text>
</g>
<!-- InvoiceIssuerName&#45;C&#45;003&#45;M&#45;&gt;InvoiceIssuerName&#45;C&#45;000&#45;M -->
<g id="edge12" class="edge">
<title>InvoiceIssuerName&#45;C&#45;003&#45;M&#45;&gt;InvoiceIssuerName&#45;C&#45;000&#45;M</title>
<path fill="none" stroke="black" d="M158.03,-330.21C186.08,-339.14 219.31,-349.71 248.24,-358.91"/>
<polygon fill="black" stroke="black" points="247.43,-361.23 254.84,-361.01 248.91,-356.56 247.43,-361.23"/>
</g>
<!-- ProviderName&#45;C&#45;003&#45;M -->
<g id="node12" class="node">
<title>ProviderName&#45;C&#45;003&#45;M</title>
<ellipse fill="lightgreen" stroke="black" cx="94.58" cy="-26.34" rx="80.79" ry="26.34"/>
<text xml:space="preserve" text-anchor="middle" x="94.58" y="-32.41" font-family="Helvetica,sans-Serif" font-size="9.00">ProviderName&#45;C&#45;003&#45;M</text>
<text xml:space="preserve" text-anchor="middle" x="94.58" y="-22.66" font-family="Helvetica,sans-Serif" font-size="9.00">PASSED</text>
<text xml:space="preserve" text-anchor="middle" x="94.58" y="-12.91" font-family="Helvetica,sans-Serif" font-size="9.00">violations=0</text>
</g>
<!-- ProviderName&#45;C&#45;003&#45;M&#45;&gt;ProviderName&#45;C&#45;000&#45;M -->
<g id="edge7" class="edge">
<title>ProviderName&#45;C&#45;003&#45;M&#45;&gt;ProviderName&#45;C&#45;000&#45;M</title>
<path fill="none" stroke="black" d="M152.84,-45.04C165.16,-49.97 177.86,-55.78 189.15,-62.34 225.52,-83.48 262.18,-114.6 287.18,-137.65"/>
<polygon fill="black" stroke="black" points="285.38,-139.32 292.17,-142.3 288.72,-135.74 285.38,-139.32"/>
</g>
<!-- BilledCost&#45;C&#45;004&#45;M -->
<g id="node13" class="node">
<title>BilledCost&#45;C&#45;004&#45;M</title>
<g id="a_node13"><a xlink:title="no defined check rule">
<ellipse fill="lightgray" stroke="black" cx="533.21" cy="-487.34" rx="68.59" ry="26.34"/>
<text xml:space="preserve" text-anchor="middle" x="533.21" y="-493.41" font-family="Helvetica,sans-Serif" font-size="9.00">BilledCost&#45;C&#45;004&#45;M</text>
<text xml:space="preserve" text-anchor="middle" x="533.21" y="-483.66" font-family="Helvetica,sans-Serif" font-size="9.00">SKIPPED</text>
<text xml:space="preserve" text-anchor="middle" x="533.21" y="-473.91" font-family="Helvetica,sans-Serif" font-size="9.00">violations=0</text>
</a>
</g>
</g>
<!-- BilledCost&#45;C&#45;004&#45;M&#45;&gt;BilledCost&#45;C&#45;000&#45;M -->
<g id="edge4" class="edge">
<title>BilledCost&#45;C&#45;004&#45;M&#45;&gt;BilledCost&#45;C&#45;000&#45;M</title>
<path fill="none" stroke="black" d="M595.46,-498.9C613.03,-502.21 632.32,-505.85 650.34,-509.25"/>
<polygon fill="black" stroke="black" points="649.7,-511.62 657.03,-510.51 650.61,-506.81 649.7,-511.62"/>
</g>
<!-- BilledCost&#45;C&#45;006&#45;M -->
<g id="node14" class="node">
<title>BilledCost&#45;C&#45;006&#45;M</title>
<g id="a_node14"><a xlink:title="dynamic rule">
<ellipse fill="lightgray" stroke="black" cx="533.21" cy="-416.34" rx="68.59" ry="26.34"/>
<text xml:space="preserve" text-anchor="middle" x="533.21" y="-422.41" font-family="Helvetica,sans-Serif" font-size="9.00">BilledCost&#45;C&#45;006&#45;M</text>
<text xml:space="preserve" text-anchor="middle" x="533.21" y="-412.66" font-family="Helvetica,sans-Serif" font-size="9.00">SKIPPED</text>
<text xml:space="preserve" text-anchor="middle" x="533.21" y="-402.91" font-family="Helvetica,sans-Serif" font-size="9.00">violations=0</text>
</a>
</g>
</g>
<!-- BilledCost&#45;C&#45;006&#45;M&#45;&gt;BilledCost&#45;C&#45;000&#45;M -->
<g id="edge16" class="edge">
<title>BilledCost&#45;C&#45;006&#45;M&#45;&gt;BilledCost&#45;C&#45;000&#45;M</title>
<path fill="none" stroke="black" d="M581.26,-435.29C592.86,-440.43 605.1,-446.26 616.12,-452.34 638.46,-464.67 662.13,-480.43 681.19,-493.88"/>
<polygon fill="black" stroke="black" points="679.64,-495.78 686.76,-497.84 682.48,-491.79 679.64,-495.78"/>
</g>
<!-- BilledCost&#45;C&#45;007&#45;M -->
<g id="node15" class="node">
<title>BilledCost&#45;C&#45;007&#45;M</title>
<g id="a_node15"><a xlink:title="dynamic rule">
<ellipse fill="lightgray" stroke="black" cx="533.21" cy="-345.34" rx="68.59" ry="26.34"/>
<text xml:space="preserve" text-anchor="middle" x="533.21" y="-351.41" font-family="Helvetica,sans-Serif" font-size="9.00">BilledCost&#45;C&#45;007&#45;M</text>
<text xml:space="preserve" text-anchor="middle" x="533.21" y="-341.66" font-family="Helvetica,sans-Serif" font-size="9.00">SKIPPED</text>
<text xml:space="preserve" text-anchor="middle" x="533.21" y="-331.91" font-family="Helvetica,sans-Serif" font-size="9.00">violations=0</text>
</a>
</g>
</g>
<!-- BilledCost&#45;C&#45;007&#45;M&#45;&gt;BilledCost&#45;C&#45;000&#45;M -->
<g id="edge17" class="edge">
<title>BilledCost&#45;C&#45;007&#45;M&#45;&gt;BilledCost&#45;C&#45;000&#45;M</title>
<path fill="none" stroke="black" d="M585.09,-362.76C595.95,-367.78 606.91,-373.96 616.12,-381.34 653.42,-411.24 684.01,-457.67 702.04,-489"/>
<polygon fill="black" stroke="black" points="699.81,-490.03 705.39,-494.91 704.07,-487.61 699.81,-490.03"/>
</g>
<!-- BilledCost&#45;C&#45;005&#45;C -->
<g id="node18" class="node">
<title>BilledCost&#45;C&#45;005&#45;C</title>
<g id="a_node18"><a xlink:title="No error message">
<ellipse fill="lightcoral" stroke="black" cx="533.21" cy="-274.34" rx="68.06" ry="26.34"/>
<text xml:space="preserve" text-anchor="middle" x="533.21" y="-280.41" font-family="Helvetica,sans-Serif" font-size="9.00">BilledCost&#45;C&#45;005&#45;C</text>
<text xml:space="preserve" text-anchor="middle" x="533.21" y="-270.66" font-family="Helvetica,sans-Serif" font-size="9.00">FAILED</text>
<text xml:space="preserve" text-anchor="middle" x="533.21" y="-260.91" font-family="Helvetica,sans-Serif" font-size="9.00">violations=1</text>
</a>
</g>
</g>
<!-- InvoiceIssuerName&#45;C&#45;000&#45;M&#45;&gt;BilledCost&#45;C&#45;005&#45;C -->
<g id="edge14" class="edge">
<title>InvoiceIssuerName&#45;C&#45;000&#45;M&#45;&gt;BilledCost&#45;C&#45;005&#45;C</title>
<path fill="none" stroke="black" d="M362.26,-357.38C387.44,-343.15 420.39,-325.07 450.3,-310.34 459.43,-305.84 469.25,-301.29 478.8,-297.01"/>
<polygon fill="black" stroke="black" points="479.61,-299.33 485.01,-294.25 477.62,-294.85 479.61,-299.33"/>
</g>
<!-- ProviderName&#45;C&#45;000&#45;M&#45;&gt;BilledCost&#45;C&#45;005&#45;C -->
<g id="edge9" class="edge">
<title>ProviderName&#45;C&#45;000&#45;M&#45;&gt;BilledCost&#45;C&#45;005&#45;C</title>
<path fill="none" stroke="black" d="M365.06,-190.56C399.55,-207.85 447.38,-231.82 483.04,-249.69"/>
<polygon fill="black" stroke="black" points="481.74,-251.79 489.1,-252.73 483.94,-247.4 481.74,-251.79"/>
</g>
<!-- BilledCost&#45;C&#45;005&#45;C&#45;&gt;BilledCost&#45;C&#45;000&#45;M -->
<g id="edge15" class="edge">
<title>BilledCost&#45;C&#45;005&#45;C&#45;&gt;BilledCost&#45;C&#45;000&#45;M</title>
<path fill="none" stroke="black" d="M586.97,-290.98C597.49,-296.01 607.83,-302.38 616.12,-310.34 668.13,-360.29 697.6,-441.8 710.93,-487.83"/>
<polygon fill="black" stroke="black" points="708.56,-488.47 712.82,-494.55 713.28,-487.14 708.56,-488.47"/>
</g>
</g>
</svg>
